<svg width="14" height="14" viewBox="0 0 14 14" fill="none" xmlns="http://www.w3.org/2000/svg">
<g id="target">
<path id="Vector" d="M7 2C9.76142 2 12 4.23858 12 7C12 9.76142 9.76142 12 7 12C4.23858 12 2 9.76142 2 7C2 4.23858 4.23858 2 7 2ZM9.59961 7C9.59961 8.43594 8.43594 9.59961 7 9.59961C5.56406 9.59961 4.40039 8.43594 4.40039 7C4.40039 5.56406 5.56406 4.40039 7 4.40039C8.43594 4.40039 9.59961 5.56406 9.59961 7ZM7.2002 7C7.2002 7.11046 7.11046 7.2002 7 7.2002C6.88954 7.2002 6.7998 7.11046 6.7998 7C6.7998 6.88954 6.88954 6.7998 7 6.7998C7.11046 6.7998 7.2002 6.88954 7.2002 7ZM9.2002 7C9.2002 5.78497 8.21503 4.7998 7 4.7998C5.78497 4.7998 4.7998 5.78497 4.7998 7C4.7998 8.21503 5.78497 9.2002 7 9.2002C8.21503 9.2002 9.2002 8.21503 9.2002 7ZM11.5996 7C11.5996 4.45949 9.54051 2.40039 7 2.40039C4.45949 2.40039 2.40039 4.45949 2.40039 7C2.40039 9.54051 4.45949 11.5996 7 11.5996C9.54051 11.5996 11.5996 9.54051 11.5996 7Z" stroke="#9CA3AF" stroke-width="2" stroke-linecap="round"/>
</g>
</svg>
