<?xml version="1.0" encoding="UTF-8"?>
<svg width="144px" height="126px" viewBox="0 0 144 126" version="1.1" xmlns="http://www.w3.org/2000/svg" xmlns:xlink="http://www.w3.org/1999/xlink">
    <title>exercise-history</title>
    <g id="icons" stroke="none" stroke-width="1" fill="none" fill-rule="evenodd">
        <g id="icon/exercise-history" transform="translate(-24.000000, -33.000000)" fill="#E25555" fill-rule="nonzero">
            <g id="exercise-history" transform="translate(24.000000, 33.000000)">
                <path d="M18,9 C18,4.021875 13.978125,0 9,0 C4.021875,0 0,4.021875 0,9 L0,103.5 C0,115.93125 10.06875,126 22.5,126 L135,126 C139.978125,126 144,121.978125 144,117 C144,112.021875 139.978125,108 135,108 L22.5,108 C20.025,108 18,105.975 18,103.5 L18,9 Z M132.363625,33.3739121 C135.878792,29.8590716 135.878792,24.1509708 132.363625,20.6361303 C128.848457,17.1212899 123.139826,17.1212899 119.624658,20.6361303 L90.0128889,50.2732649 L73.8712407,34.1331176 C70.3560734,30.6182772 64.6474417,30.6182772 61.1322744,34.1331176 L29.6363755,65.6260879 C26.1212082,69.1409284 26.1212082,74.8490292 29.6363755,78.3638697 C33.1515428,81.8787101 38.8601745,81.8787101 42.3753418,78.3638697 L67.5158183,53.2538496 L83.6574665,69.3939969 C87.1726338,72.9088373 92.8812655,72.9088373 96.3964328,69.3939969 L132.391746,33.4020308 L132.363625,33.3739121 Z" id="Shape"></path>
            </g>
        </g>
    </g>
</svg>